<?xml version="1.0" encoding="utf-8"?>
<!-- Generator: Adobe Illustrator 21.1.0, SVG Export Plug-In . SVG Version: 6.00 Build 0)  -->
<svg version="1.1" id="Capa_1" xmlns="http://www.w3.org/2000/svg" xmlns:xlink="http://www.w3.org/1999/xlink" x="0px" y="0px"
	 viewBox="0 0 99 99" style="enable-background:new 0 0 99 99;" xml:space="preserve">
<style type="text/css">
	.st0{fill:#332F2F;}
	.st1{fill:#F61B06;}
</style>
<g>
	<g>
		<path class="st0" d="M17.3,52.2c-4.1,0-7.5,3.3-7.5,7.5c0,0.3,0,0.6,0.1,0.9c0.5,3.7,3.6,6.5,7.4,6.5c3.9,0,7.1-3,7.4-6.8
			c0-0.2,0-0.4,0-0.6C24.7,55.5,21.4,52.2,17.3,52.2z M13.5,56.8l1.5,1.5c-0.1,0.2-0.2,0.4-0.3,0.7h-2.1
			C12.8,58.2,13.1,57.4,13.5,56.8z M12.6,60.3h2.2c0.1,0.2,0.2,0.4,0.3,0.6l-1.5,1.5C13.1,61.8,12.7,61.1,12.6,60.3z M16.6,64.3
			c-0.8-0.1-1.5-0.4-2.2-0.9l1.5-1.5c0.2,0.1,0.4,0.2,0.6,0.3V64.3z M16.6,57.1c-0.2,0.1-0.5,0.2-0.7,0.3l-1.5-1.5
			c0.6-0.5,1.4-0.8,2.2-0.9V57.1z M17.9,55c0.8,0.1,1.6,0.4,2.2,0.9l-1.5,1.5c-0.2-0.1-0.4-0.2-0.7-0.3L17.9,55L17.9,55z M17.9,64.3
			v-2.2c0.2-0.1,0.4-0.1,0.6-0.3l1.5,1.5C19.5,63.8,18.7,64.1,17.9,64.3z M21,62.5l-1.5-1.5c0.1-0.2,0.2-0.4,0.3-0.6h2.1
			C21.8,61.1,21.5,61.8,21,62.5z M19.8,59c-0.1-0.2-0.2-0.5-0.3-0.7l1.5-1.5c0.5,0.6,0.8,1.4,0.9,2.2L19.8,59L19.8,59z"/>
		<path class="st0" d="M79.3,52.2c-4.1,0-7.5,3.3-7.5,7.5c0,0.3,0,0.6,0.1,0.9c0.5,3.7,3.6,6.5,7.4,6.5c3.9,0,7.1-3,7.4-6.8
			c0-0.2,0-0.4,0-0.6C86.8,55.5,83.4,52.2,79.3,52.2z M75.5,56.8l1.5,1.5c-0.1,0.2-0.2,0.4-0.3,0.7h-2.1
			C74.8,58.2,75.1,57.4,75.5,56.8z M74.6,60.3h2.2c0.1,0.2,0.2,0.4,0.3,0.6l-1.5,1.5C75.1,61.8,74.8,61.1,74.6,60.3z M78.6,64.3
			c-0.8-0.1-1.5-0.4-2.2-0.9l1.5-1.5c0.2,0.1,0.4,0.2,0.6,0.3V64.3z M78.6,57.1c-0.2,0.1-0.5,0.2-0.7,0.3l-1.5-1.5
			c0.6-0.5,1.4-0.8,2.2-0.9C78.6,55,78.6,57.1,78.6,57.1z M79.9,55c0.8,0.1,1.6,0.4,2.2,0.9l-1.5,1.5c-0.2-0.1-0.4-0.2-0.7-0.3
			C79.9,57.1,79.9,55,79.9,55z M79.9,64.3v-2.2c0.2-0.1,0.4-0.1,0.6-0.3l1.5,1.5C81.5,63.8,80.7,64.1,79.9,64.3z M83,62.5l-1.5-1.5
			c0.1-0.2,0.2-0.4,0.3-0.6h2.1C83.8,61.1,83.5,61.8,83,62.5z M81.8,59c-0.1-0.2-0.2-0.5-0.3-0.7l1.5-1.5c0.5,0.6,0.8,1.4,0.9,2.2
			L81.8,59L81.8,59z"/>
		<path class="st1" d="M97.2,48.3v-5.5c0-0.9-0.6-1.6-1.5-1.8c-2.1-0.3-5.8-1-7.5-1.5c-2.4-0.7-11.7-4.7-14.9-5.4
			c-3.2-0.7-17.7-4.7-31.6,0.1c-2.4,0.8-12.9,5.9-19.2,8.5c-1.8,0-20,3.8-20.9,6.4c-1,2.6-1.3,3.9-1.4,4.5c-0.2,0.7,0,3.8,1.3,6
			c1.4,0.8,4,1.3,7.1,1.6c0-0.2-0.1-0.4-0.1-0.6c-0.1-0.4-0.1-0.8-0.1-1.1c0-4.9,4-9,9-9s9,4,9,9c0,0.3,0,0.5,0,0.8
			c0,0.6-0.1,1.1-0.3,1.6c0,0,0,0,0,0l44.5-0.9c0-0.1,0-0.2-0.1-0.3c-0.1-0.4-0.1-0.8-0.1-1.1c0-4.9,4-9,9-9s9,4,9,9c0,0,0,0,0,0.1
			l0.2,0l7.6-1.4c0,0,2.9-1.6,2.9-5.8C99,49.6,97.2,48.3,97.2,48.3z M53.1,43.1l-16.6,0.5c0.3-2.5-1.2-3-1.2-3
			c6.6-6,19.9-6.2,19.9-6.2L53.1,43.1z M71.7,42.3l-15.2,0.5l1.4-8.5c7.8-0.1,12.3,1.6,12.3,1.6l2.2,3.6L71.7,42.3z M80.3,42.2H76
			l-4.2-5.8c3.2,1.3,5.7,2.5,7.2,3.3C79.9,40.2,80.4,41.2,80.3,42.2z"/>
	</g>
</g>
</svg>
