<?xml version="1.0" encoding="utf-8"?>
<!-- Generator: Adobe Illustrator 21.1.0, SVG Export Plug-In . SVG Version: 6.00 Build 0)  -->
<svg version="1.1" id="Capa_1" xmlns="http://www.w3.org/2000/svg" xmlns:xlink="http://www.w3.org/1999/xlink" x="0px" y="0px"
	 viewBox="0 0 70.1 70.1" style="enable-background:new 0 0 70.1 70.1;" xml:space="preserve">
<style type="text/css">
	.st0{fill:#F61B06;}
</style>
<g>
	<path class="st0" d="M67.7,17.3v-4.2h-4.4V7.9l-28.3,5.3H2.4v4.2H0v44.9h70.1V17.3H67.7z M4.7,17.3v-1.8h29.1v1.8v40.8H4.7V17.3z
		 M47.7,13.1l13.2-2.4v2.4v1.2v1.2v1.8v36l-24.7,4.6V17.3v-1.8v-0.2l5.2-1L47.7,13.1z M65.3,17.3v40.8H47.7l15.5-2.9V17.3v-1.8h2.1
		V17.3L65.3,17.3z M39.6,47.3l-0.6-2.3l18.5-5l0.6,2.3L39.6,47.3z M39.3,53.6l-0.6-2.3l18.5-5l0.6,2.3L39.3,53.6z M39.8,23.3
		l-0.6-2.2l13.4-3.7l4.6-1.3l0.4,1.3l0.3,1L39.8,23.3z M39.8,29.3L39.2,27l18-5l0.6,2.2L39.8,29.3z M39.8,35.2L39.1,33l18.1-5
		l0.6,2.3L39.8,35.2z M39.8,41.2l-0.6-2.3l18.1-5l0.6,2.3L39.8,41.2z M8,45.6h22.9v2.3H8V45.6z M7.8,51.9h22.9v2.3H7.8V51.9z
		 M30.7,35.9H8.2v-2.3h22.5V35.9z M30.7,41.8H8.2v-2.3h22.5V41.8z M30.7,29.9H8.2v-2.3h22.5V29.9z M30.7,23.9H8.2v-2.3h22.5V23.9z"
		/>
</g>
</svg>
