<?xml version="1.0" encoding="utf-8"?>
<!-- Generator: Adobe Illustrator 21.1.0, SVG Export Plug-In . SVG Version: 6.00 Build 0)  -->
<svg version="1.1" id="Слой_1" xmlns="http://www.w3.org/2000/svg" xmlns:xlink="http://www.w3.org/1999/xlink" x="0px" y="0px"
	 viewBox="0 0 512 512" style="enable-background:new 0 0 512 512;" xml:space="preserve">
<style type="text/css">
	.st0{fill:#F61B06;}
</style>
<g id="_05-transmission">
	<g id="Glyph">
		<path class="st0" d="M256,0C106.9,0,21.3,77.8,21.3,213.3C21.3,357.6,115.6,512,256,512s234.7-154.4,234.7-298.7
			C490.7,77.8,405.1,0,256,0z M256,85.3c11.8,0,21.3,9.6,21.3,21.3S267.8,128,256,128c-11.8,0-21.3-9.6-21.3-21.3
			S244.2,85.3,256,85.3z M128,85.3c11.8,0,21.3,9.6,21.3,21.3S139.8,128,128,128s-21.3-9.6-21.3-21.3S116.2,85.3,128,85.3z
			 M256,426.7c-11.8,0-21.3-9.6-21.3-21.3S244.2,384,256,384c11.8,0,21.3,9.6,21.3,21.3S267.8,426.7,256,426.7z M384,426.7
			c-11.8,0-21.3-9.6-21.3-21.3S372.2,384,384,384c11.8,0,21.3,9.6,21.3,21.3S395.8,426.7,384,426.7z M405.3,362.7h-42.7v-85.3h-85.3
			v85.3h-42.7v-85.3H128c-11.8,0-21.3-9.6-21.3-21.3V149.3h42.7v85.3h85.3v-85.3h42.7v85.3h85.3v-85.3h42.7V362.7z M384,128
			c-11.8,0-21.3-9.6-21.3-21.3s9.6-21.3,21.3-21.3c11.8,0,21.3,9.6,21.3,21.3S395.8,128,384,128z"/>
	</g>
</g>
</svg>
